<!DOCTYPE svg PUBLIC "-//W3C//DTD SVG 1.1//EN" "http://www.w3.org/Graphics/SVG/1.1/DTD/svg11.dtd">
<!-- Uploaded to: SVG Repo, www.svgrepo.com, Transformed by: SVG Repo Mixer Tools -->
<svg fill="#000000" height="800px" width="800px" version="1.1" id="Capa_1" xmlns="http://www.w3.org/2000/svg" xmlns:xlink="http://www.w3.org/1999/xlink" viewBox="0 0 401.165 401.165" xml:space="preserve">
<g id="SVGRepo_bgCarrier" stroke-width="0"/>
<g id="SVGRepo_tracerCarrier" stroke-linecap="round" stroke-linejoin="round"/>
<g id="SVGRepo_iconCarrier"> <g> <path d="M266.961,235.208c-0.58-32.784,5.84-78.676,39.716-111.124c0.783-0.75,1.229-1.786,1.233-2.87s-0.43-2.124-1.206-2.881 c-2.805-2.738-11.876-14.195-15.135-18.378c-1.173-1.505-3.246-1.973-4.951-1.116l-32.241,16.197 c-6.949-4.769-30.429-19.096-61.696-19.096c-15.553,0-30.735,3.592-45.224,10.689v-3.947c0-1.149-0.494-2.244-1.357-3.003 c-0.862-0.759-2.01-1.11-3.151-0.964l-31.607,4.052c-2.065,0.265-3.583,2.071-3.487,4.151l3.325,72.381 c0.099,2.133,1.854,3.813,3.99,3.816l27.713,0.039c0.002,0,0.004,0,0.006,0c0.007,0,0.013,0,0.02,0c2.21,0,4-1.791,4-4 c0-0.384-0.054-0.756-0.155-1.108c-0.32-2.012-0.525-7.203,1.982-10.264c1.65-2.014,4.32-2.993,8.164-2.993 c2.918,0,6.419,0.593,10.408,1.764c10.843,3.182,20.467,4.917,28.646,5.167c-5.818,5.298-13.06,12.981-20.02,23.327 c-13.707,20.378-28.825,55.407-23.003,106.556c0.229,2.005,1.915,3.526,3.934,3.547c4.815,0.049,17.374,0.074,37.325,0.074 c34.344,0,78.619-0.074,78.619-0.074c1.274-0.002,2.471-0.612,3.223-1.641c0.752-1.029,0.968-2.355,0.583-3.57 C276.524,299.657,267.597,271.123,266.961,235.208z M194.189,297.226c-16.14,0-27.428-0.017-33.679-0.049 c-4.464-46.604,9.307-78.57,21.834-97.325c13.943-20.874,29.426-30.42,29.575-30.511c1.859-1.121,2.525-3.542,1.451-5.427 c-1.076-1.887-3.419-2.592-5.33-1.563c-0.029,0.014-3.003,1.401-10.053,1.401c-7.839,0-17.404-1.641-28.429-4.876 c-12.804-3.758-21.913-2.39-27.013,3.836c-3.198,3.905-3.937,8.845-3.967,12.436l-19.584-0.028l-2.98-64.887l23.442-3.006v6.027 c0,1.422,0.755,2.737,1.983,3.454c1.228,0.718,2.745,0.729,3.982,0.03c15.051-8.493,30.95-12.799,47.258-12.799 c33.889,0,58.642,18.735,58.884,18.922c1.217,0.94,2.864,1.102,4.242,0.409l31.479-15.814c2.764,3.509,7.628,9.621,11.078,13.601 c-26.679,27.248-40.285,66.738-39.396,114.51c0.525,28.268,5.864,51.597,8.533,61.593 C254.745,297.179,221.359,297.226,194.189,297.226z"/> <path d="M96.982,143.489c-1.173-1.506-3.245-1.973-4.951-1.116l-15.385,7.729c-4.622-2.983-16.346-9.414-31.523-9.414 c-7.253,0-14.348,1.476-21.168,4.397c-0.198-0.77-0.624-1.47-1.231-2.005c-0.862-0.759-2.009-1.111-3.151-0.964l-16.08,2.062 c-2.065,0.265-3.583,2.07-3.487,4.151l1.692,36.823c0.099,2.133,1.854,3.813,3.99,3.816l14.099,0.02c0.002,0,0.004,0,0.006,0 c0.004,0,0.012,0,0.02,0c2.21,0,4-1.791,4-4c0-0.354-0.046-0.697-0.132-1.024c-0.115-0.939-0.096-2.675,0.616-3.527 c0.873-1.047,3.655-1.063,7.365,0.026c3.833,1.125,7.386,1.904,10.623,2.333c-9.832,10.206-23.204,30.735-19.336,64.709 c0.229,2.005,1.915,3.526,3.934,3.547c2.457,0.025,8.853,0.038,19.009,0.038c17.474,0,40-0.038,40-0.038 c1.273-0.002,2.47-0.612,3.222-1.641s0.969-2.354,0.584-3.569c-0.178-0.563-17.428-56.603,14.781-87.453 c0.783-0.75,1.229-1.786,1.233-2.87s-0.43-2.124-1.206-2.881C103.307,151.471,99.255,146.407,96.982,143.489z M76.88,213.725 c0.234,12.594,2.325,23.309,3.782,29.337c-7.688,0.011-22.481,0.03-34.772,0.03c-6.849,0-11.978-0.005-15.333-0.017 c-2.753-35.157,14.926-53.231,22.293-59.165c1.699-1.368,2.147-3.769,1.02-5.638l-0.01-0.017l-0.45-0.836 c-0.805-1.497-2.403-2.372-4.1-2.271c-0.434,0.026-0.928,0.042-1.486,0.042c-2.613,0-7.148-0.417-13.911-2.401 c-2.581-0.757-4.934-1.142-6.993-1.142c-4.765,0-7.427,2.03-8.822,3.733c-1.439,1.757-2.078,3.796-2.328,5.604l-6.256-0.009 l-1.348-29.33l7.915-1.015l0,0.675c0,1.004,0.305,2.008,0.964,2.765c1.3,1.494,3.388,1.788,5.002,0.877 c7.358-4.152,15.123-6.258,23.076-6.258c16.521,0,28.643,9.13,28.756,9.216c1.217,0.94,2.865,1.102,4.242,0.409l14.583-7.327 c1.063,1.338,2.36,2.952,3.544,4.369C83.116,169.542,76.432,189.627,76.88,213.725z"/> <path d="M399.959,152.641c-1.197-1.169-5.249-6.234-7.522-9.152c-1.173-1.506-3.245-1.973-4.951-1.116l-15.385,7.729 c-4.622-2.983-16.346-9.414-31.522-9.414c-7.253,0-14.348,1.476-21.168,4.397c-0.198-0.77-0.624-1.47-1.231-2.005 c-0.862-0.759-2.008-1.111-3.151-0.964l-16.08,2.062c-2.065,0.265-3.583,2.07-3.487,4.151l1.691,36.823 c0.099,2.133,1.854,3.813,3.99,3.816l14.099,0.02c0.002,0,0.004,0,0.006,0c0.005,0,0.012,0,0.02,0c2.21,0,4-1.791,4-4 c0-0.354-0.046-0.697-0.132-1.023c-0.115-0.939-0.095-2.675,0.616-3.528c0.874-1.049,3.657-1.063,7.366,0.026 c3.833,1.125,7.386,1.904,10.622,2.333c-9.831,10.207-23.203,30.736-19.336,64.71c0.229,2.005,1.915,3.526,3.934,3.547 c2.457,0.025,8.853,0.038,19.01,0.038c17.473,0,40-0.038,40-0.038c1.274-0.002,2.472-0.612,3.224-1.641 c0.752-1.03,0.968-2.356,0.581-3.571c-0.178-0.562-17.489-56.54,14.781-87.451c0.783-0.75,1.229-1.786,1.233-2.87 S400.736,153.398,399.959,152.641z M372.336,213.725c0.234,12.594,2.325,23.309,3.782,29.337c-7.688,0.011-22.481,0.03-34.772,0.03 c-6.85,0-11.979-0.005-15.334-0.017c-2.752-35.157,14.926-53.231,22.293-59.165c1.699-1.368,2.147-3.769,1.02-5.638l-0.011-0.017 l-0.45-0.836c-0.805-1.497-2.404-2.372-4.1-2.271c-0.434,0.026-0.928,0.042-1.486,0.042c-2.613,0-7.147-0.417-13.91-2.401 c-2.581-0.757-4.935-1.142-6.994-1.142c-4.764,0-7.427,2.03-8.821,3.733c-1.44,1.757-2.079,3.796-2.329,5.604l-6.256-0.009 l-1.347-29.33l7.915-1.015v0.684c0,1.003,0.307,2.006,0.967,2.76c1.302,1.49,3.388,1.783,4.999,0.873 c7.358-4.152,15.123-6.258,23.076-6.258c16.521,0,28.642,9.13,28.755,9.216c1.217,0.94,2.865,1.102,4.242,0.409l14.583-7.327 c1.063,1.338,2.36,2.952,3.544,4.369C378.571,169.542,371.888,189.627,372.336,213.725z"/> </g> </g>
</svg>